<?xml version="1.0" encoding="utf-8"?>
<!-- Generator: Adobe Illustrator 18.1.0, SVG Export Plug-In . SVG Version: 6.00 Build 0)  -->
<!DOCTYPE svg PUBLIC "-//W3C//DTD SVG 1.1//EN" "http://www.w3.org/Graphics/SVG/1.1/DTD/svg11.dtd">
<svg version="1.1" id="Calque_1" xmlns="http://www.w3.org/2000/svg" xmlns:xlink="http://www.w3.org/1999/xlink" x="0px" y="0px"
	 viewBox="0 0 21.9 17.8" enable-background="new 0 0 21.9 17.8" xml:space="preserve">
<g>
	<path fill-rule="evenodd" clip-rule="evenodd" fill="#FFFFFF" d="M14.7,0c0.3,0,0.5,0,0.8,0c1.3,0.2,2.2,0.8,3,1.4
		c1-0.2,1.9-0.6,2.7-1c-0.3,1.1-1.1,1.8-1.9,2.4c1-0.1,1.7-0.4,2.5-0.6c-0.6,0.9-1.4,1.6-2.2,2.2c0.1,4.2-1.6,7.5-3.7,9.6
		c-2.1,2.1-4.9,3.5-8.5,3.7c-0.4,0-0.8,0-1.3,0c-2.3-0.2-4.8-0.9-6.1-2c2.3,0.3,4.7-0.5,6.1-1.5c0.1-0.1,0.4-0.2,0.4-0.4
		c-2.3-0.1-3.5-1.3-4.1-3.1c0.5,0.1,1.6,0.2,2-0.1c-2.1-0.5-3.5-2-3.5-4.4c0.5,0.3,1.2,0.5,2,0.6C2.4,6.5,2,6.2,1.6,5.7
		c-1-1.3-1.2-3.4-0.3-4.9c2.2,2.4,5.1,4.4,9.3,4.6C10.3,2.2,12.1,0.5,14.7,0z"/>
</g>
<g>
</g>
<g>
</g>
<g>
</g>
<g>
</g>
<g>
</g>
<g>
</g>
</svg>
