<?xml version="1.0" encoding="utf-8"?>
<!-- Generator: Adobe Illustrator 18.1.0, SVG Export Plug-In . SVG Version: 6.00 Build 0)  -->
<!DOCTYPE svg PUBLIC "-//W3C//DTD SVG 1.1//EN" "http://www.w3.org/Graphics/SVG/1.1/DTD/svg11.dtd">
<svg version="1.1" id="Calque_1" xmlns="http://www.w3.org/2000/svg" xmlns:xlink="http://www.w3.org/1999/xlink" x="0px" y="0px"
	 viewBox="0 0 17.7 17.5" enable-background="new 0 0 17.7 17.5" xml:space="preserve">
<path fill="#FFFFFF" d="M16.5,0H1.2C0.5,0,0,0.5,0,1.2v15.1c0,0.7,0.5,1.2,1.2,1.2h8.2v-6.8c-0.8,0-1.6,0.1-2.3,0
	c0-0.9-0.1-1.8,0-2.6c0.8,0,1.5,0,2.3,0c-0.3-3,0.4-5.2,3-5.4c0.8-0.1,1.7,0,2.5,0.1c0,0.8,0,1.6,0,2.4C14,5.2,13,4.9,12.5,5.4
	c-0.5,0.5-0.2,1.7-0.3,2.7c0.9,0,1.8,0,2.6,0c-0.1,0.9-0.2,1.8-0.4,2.6c-0.8,0-1.5,0-2.2,0c0,1.3,0,4.1,0,6.8h4.3
	c0.7,0,1.2-0.5,1.2-1.2V1.2C17.7,0.5,17.2,0,16.5,0z"/>
<g>
</g>
<g>
</g>
<g>
</g>
<g>
</g>
<g>
</g>
<g>
</g>
</svg>
