<?xml version="1.0" encoding="UTF-8" standalone="no"?>
<!-- Generator: Adobe Illustrator 18.1.0, SVG Export Plug-In . SVG Version: 6.00 Build 0)  -->

<svg
   version="1.1"
   id="Calque_1"
   x="0px"
   y="0px"
   viewBox="0 0 17.7 17.5"
   enable-background="new 0 0 17.7 17.5"
   xml:space="preserve"
   sodipodi:docname="bt_google_hover.svg"
   inkscape:version="1.2 (dc2aedaf03, 2022-05-15)"
   xmlns:inkscape="http://www.inkscape.org/namespaces/inkscape"
   xmlns:sodipodi="http://sodipodi.sourceforge.net/DTD/sodipodi-0.dtd"
   xmlns="http://www.w3.org/2000/svg"
   xmlns:svg="http://www.w3.org/2000/svg"><defs
   id="defs169" /><sodipodi:namedview
   id="namedview167"
   pagecolor="#ffffff"
   bordercolor="#000000"
   borderopacity="0.25"
   inkscape:showpageshadow="2"
   inkscape:pageopacity="0.0"
   inkscape:pagecheckerboard="0"
   inkscape:deskcolor="#d1d1d1"
   showgrid="false"
   inkscape:zoom="47.371429"
   inkscape:cx="8.844994"
   inkscape:cy="8.7394451"
   inkscape:window-width="1920"
   inkscape:window-height="1009"
   inkscape:window-x="-8"
   inkscape:window-y="-8"
   inkscape:window-maximized="1"
   inkscape:current-layer="Calque_1" />
<g
   id="g152"
   style="fill:#cfcfcf;fill-opacity:1">
	
		<ellipse
   transform="matrix(-0.3224 -0.9466 0.9466 -0.3224 3.5615 14.528)"
   fill-rule="evenodd"
   clip-rule="evenodd"
   fill="#FFFFFF"
   cx="7"
   cy="6"
   rx="2"
   ry="1.4"
   id="ellipse146"
   style="fill:#cfcfcf;fill-opacity:1" />
	<path
   fill-rule="evenodd"
   clip-rule="evenodd"
   fill="#FFFFFF"
   d="M4.8,11.9c0,1.1,1.2,1.7,2.4,1.7c1.3,0,2.1-0.7,2.1-1.5   c0-0.9-1.1-1.3-1.6-1.9C5.9,10.2,4.8,10.8,4.8,11.9z"
   id="path148"
   style="fill:#cfcfcf;fill-opacity:1" />
	<path
   fill-rule="evenodd"
   clip-rule="evenodd"
   fill="#FFFFFF"
   d="M16.5,0H1.2C0.5,0,0,0.5,0,1.2v15.1c0,0.7,0.5,1.2,1.2,1.2h15.3   c0.7,0,1.2-0.5,1.2-1.2V1.2C17.7,0.5,17.2,0,16.5,0z M8.8,7.7C8.5,8,7.8,8.6,8.6,9.2c0.8,0.6,1.7,1.3,1.7,2.4c0,1.1-1.2,2.6-4,2.6   s-2.9-1.8-2.9-2.1c0-0.3,0.2-2.1,3.8-2.3C6.9,9.5,6.7,9,7,8.4c-0.6,0-2.8-0.2-2.8-2.2c0-2,1.8-2.7,3.2-2.7c1.1,0,2.6,0,3.2,0   L9.8,4.2H9C9.6,4.6,10.6,6.3,8.8,7.7z M14.1,8.9h-1.3v1.3H12V8.9h-1.3V8.1H12V6.8h0.8v1.3h1.3V8.9z"
   id="path150"
   style="fill:#cfcfcf;fill-opacity:1" />
</g>
<g
   id="g154">
</g>
<g
   id="g156">
</g>
<g
   id="g158">
</g>
<g
   id="g160">
</g>
<g
   id="g162">
</g>
<g
   id="g164">
</g>
</svg>
