<?xml version="1.0" encoding="UTF-8" standalone="no"?>
<!-- Generator: Adobe Illustrator 18.1.0, SVG Export Plug-In . SVG Version: 6.00 Build 0)  -->

<svg
   version="1.1"
   id="Calque_1"
   x="0px"
   y="0px"
   viewBox="0 0 21.9 17.8"
   enable-background="new 0 0 21.9 17.8"
   xml:space="preserve"
   sodipodi:docname="bt_twitter_hover.svg"
   inkscape:version="1.2 (dc2aedaf03, 2022-05-15)"
   xmlns:inkscape="http://www.inkscape.org/namespaces/inkscape"
   xmlns:sodipodi="http://sodipodi.sourceforge.net/DTD/sodipodi-0.dtd"
   xmlns="http://www.w3.org/2000/svg"
   xmlns:svg="http://www.w3.org/2000/svg"><defs
   id="defs21" /><sodipodi:namedview
   id="namedview19"
   pagecolor="#ffffff"
   bordercolor="#000000"
   borderopacity="0.25"
   inkscape:showpageshadow="2"
   inkscape:pageopacity="0.0"
   inkscape:pagecheckerboard="0"
   inkscape:deskcolor="#d1d1d1"
   showgrid="false"
   inkscape:zoom="46.573036"
   inkscape:cx="10.950542"
   inkscape:cy="8.8892638"
   inkscape:window-width="1920"
   inkscape:window-height="1009"
   inkscape:window-x="-8"
   inkscape:window-y="-8"
   inkscape:window-maximized="1"
   inkscape:current-layer="Calque_1" />
<g
   id="g4"
   style="fill:#cfcfcf;fill-opacity:1">
	<path
   fill-rule="evenodd"
   clip-rule="evenodd"
   fill="#FFFFFF"
   d="M14.7,0c0.3,0,0.5,0,0.8,0c1.3,0.2,2.2,0.8,3,1.4   c1-0.2,1.9-0.6,2.7-1c-0.3,1.1-1.1,1.8-1.9,2.4c1-0.1,1.7-0.4,2.5-0.6c-0.6,0.9-1.4,1.6-2.2,2.2c0.1,4.2-1.6,7.5-3.7,9.6   c-2.1,2.1-4.9,3.5-8.5,3.7c-0.4,0-0.8,0-1.3,0c-2.3-0.2-4.8-0.9-6.1-2c2.3,0.3,4.7-0.5,6.1-1.5c0.1-0.1,0.4-0.2,0.4-0.4   c-2.3-0.1-3.5-1.3-4.1-3.1c0.5,0.1,1.6,0.2,2-0.1c-2.1-0.5-3.5-2-3.5-4.4c0.5,0.3,1.2,0.5,2,0.6C2.4,6.5,2,6.2,1.6,5.7   c-1-1.3-1.2-3.4-0.3-4.9c2.2,2.4,5.1,4.4,9.3,4.6C10.3,2.2,12.1,0.5,14.7,0z"
   id="path2"
   style="fill:#cfcfcf;fill-opacity:1" />
</g>
<g
   id="g6">
</g>
<g
   id="g8">
</g>
<g
   id="g10">
</g>
<g
   id="g12">
</g>
<g
   id="g14">
</g>
<g
   id="g16">
</g>
</svg>
