<?xml version="1.0" encoding="utf-8"?>
<!-- Generator: Adobe Illustrator 18.1.0, SVG Export Plug-In . SVG Version: 6.00 Build 0)  -->
<!DOCTYPE svg PUBLIC "-//W3C//DTD SVG 1.1//EN" "http://www.w3.org/Graphics/SVG/1.1/DTD/svg11.dtd">
<svg version="1.1" id="Calque_1" xmlns="http://www.w3.org/2000/svg" xmlns:xlink="http://www.w3.org/1999/xlink" x="0px" y="0px"
	 viewBox="-60.6 1127.7 122 16.5" enable-background="new -60.6 1127.7 122 16.5" xml:space="preserve">
<symbol  id="f_x5F_EU" viewBox="-27.5 -17.5 55 35">
	<g id="Union_européenne_1_">
		<g>
			<g>
				<polygon fill="#1C59AA" points="27.5,17.5 27.5,-17.5 -27.5,-17.5 -27.5,17.5 				"/>
			</g>
			<g>
				<polygon fill="#FAE100" points="-0.6,13.3 -2.3,13.3 -0.9,12.2 -1.5,10.6 0,11.6 1.4,10.6 0.8,12.2 2.2,13.3 0.5,13.2 
					-0.1,14.9 				"/>
				<polygon fill="#FAE100" points="-0.6,-12.2 -2.3,-12.2 -0.9,-13.2 -1.5,-14.9 0,-13.8 1.4,-14.9 0.8,-13.2 2.2,-12.2 0.5,-12.2 
					-0.1,-10.6 				"/>
				<polygon fill="#FAE100" points="5.8,11.6 4,11.6 5.5,10.6 4.9,8.9 6.3,10 7.7,8.9 7.2,10.6 8.6,11.6 6.9,11.6 6.3,13.2 				"/>
				<polygon fill="#FAE100" points="10.4,6.9 8.7,6.9 10.1,5.9 9.5,4.2 11,5.3 12.4,4.2 11.8,5.9 13.2,6.9 11.5,6.9 11,8.5 				"/>
				<polygon fill="#FAE100" points="12.2,0.6 10.4,0.6 11.9,-0.4 11.3,-2.1 12.8,-1 14.2,-2.1 13.6,-0.4 15,0.6 13.3,0.5 12.7,2.2 
									"/>
				<polygon fill="#FAE100" points="-5.8,11.5 -4,11.6 -5.5,10.5 -4.9,8.8 -6.3,9.9 -7.7,8.8 -7.2,10.5 -8.6,11.5 -6.9,11.5 
					-6.3,13.2 				"/>
				<polygon fill="#FAE100" points="-5.8,-10.4 -4,-10.4 -5.5,-11.4 -4.9,-13.1 -6.3,-12 -7.7,-13.1 -7.2,-11.4 -8.6,-10.4 
					-6.9,-10.4 -6.3,-8.7 				"/>
				<polygon fill="#FAE100" points="-10.4,6.8 -8.7,6.9 -10.1,5.8 -9.5,4.1 -11,5.2 -12.4,4.1 -11.8,5.8 -13.2,6.8 -11.5,6.8 
					-11,8.5 				"/>
				<polygon fill="#FAE100" points="-10.4,-5.9 -8.7,-5.9 -10.1,-7 -9.5,-8.6 -11,-7.6 -12.4,-8.6 -11.8,-6.9 -13.2,-5.9 -11.5,-6 
					-11,-4.3 				"/>
				<polygon fill="#FAE100" points="5.7,-10.4 3.9,-10.4 5.3,-11.4 4.8,-13.1 6.2,-12 7.6,-13.1 7.1,-11.4 8.5,-10.4 6.8,-10.4 
					6.2,-8.7 				"/>
				<polygon fill="#FAE100" points="10.3,-5.9 8.6,-5.9 10,-7 9.4,-8.6 10.9,-7.6 12.3,-8.6 11.7,-6.9 13.1,-5.9 11.4,-6 10.8,-4.3 
									"/>
				<polygon fill="#FAE100" points="-12.2,0.5 -10.4,0.5 -11.9,-0.5 -11.3,-2.2 -12.8,-1.1 -14.2,-2.2 -13.6,-0.5 -15,0.5 
					-13.3,0.5 -12.7,2.2 				"/>
			</g>
		</g>
	</g>
</symbol>
<g>
	<g>
		<path fill="#FFFFFF" d="M33.1,1131.2v2.8h-2.2v5.9c0,0.6,0,1,0.2,1.2c0.2,0.2,0.5,0.3,1.1,0.3c0.2,0,0.3,0,0.5,0
			c0.2,0,0.4,0,0.4-0.1v2.6c0,0.1-0.5,0.1-0.9,0.1c-0.4,0-0.7,0-1,0c-0.5,0-1,0-1.5-0.1c-0.5-0.1-0.9-0.2-1.2-0.4
			c-0.4-0.2-0.5-0.5-0.8-0.9c-0.2-0.4-0.2-0.9-0.2-1.5v-7.1h-2.2v-2.8h2.2v-3.4h3.4v3.4H33.1z M19.8,1138.1
			c-0.2,0.1-0.4,0.1-0.7,0.2c-0.2,0.1-0.5,0.1-0.8,0.1c-0.3,0-0.5,0.1-0.8,0.1c-0.3,0-0.5,0.1-0.7,0.2c-0.3,0.1-0.5,0.2-0.7,0.3
			c-0.2,0.1-0.3,0.3-0.4,0.5c-0.1,0.2-0.2,0.5-0.2,0.8c0,0.3,0.1,0.6,0.2,0.8c0.1,0.2,0.3,0.4,0.5,0.5c0.2,0.1,0.4,0.2,0.7,0.3
			c0.3,0,0.5,0.1,0.8,0.1c0.7,0,1.2-0.1,1.6-0.3c0.4-0.2,0.6-0.5,0.8-0.8c0.2-0.3,0.2-0.6,0.3-0.9c0-0.3,0-0.6,0-0.8v-1.3
			C20.2,1137.9,20,1138,19.8,1138.1 M13.1,1133.2c0.4-0.5,0.8-0.9,1.3-1.2c0.5-0.3,1.2-0.5,1.8-0.7c0.7-0.1,1.4-0.2,2-0.2
			c0.6,0,1.3,0,1.9,0.1c0.6,0.1,1.2,0.3,1.8,0.5c0.5,0.3,0.8,0.6,1.2,1.1c0.3,0.5,0.4,1.1,0.4,1.8v6.5c0,0.6,0.1,1.1,0.2,1.6
			c0.1,0.5,0.2,0.9,0.4,1.2l-3.4,0c-0.1-0.2-0.1-0.4-0.1-0.6c0-0.2-0.1-0.4-0.1-0.6c-0.5,0.6-1.2,1-1.9,1.2
			c-0.7,0.2-1.5,0.3-2.3,0.3c-0.6,0-1.1-0.1-1.7-0.2c-0.5-0.1-1-0.4-1.3-0.7c-0.4-0.3-0.7-0.7-0.9-1.1c-0.2-0.5-0.3-1-0.3-1.7
			c0-0.7,0.1-1.3,0.4-1.7c0.2-0.5,0.6-0.8,1-1.1c0.4-0.3,0.8-0.5,1.3-0.6c0.5-0.1,1-0.2,1.5-0.3c0.5-0.1,1-0.1,1.5-0.2
			c0.5,0,0.9-0.1,1.3-0.2c0.4-0.1,0.7-0.2,0.9-0.4c0.2-0.2,0.3-0.4,0.3-0.8c0-0.4-0.1-0.7-0.2-0.9c-0.1-0.2-0.3-0.4-0.5-0.5
			c-0.2-0.1-0.4-0.2-0.7-0.2c-0.3,0-0.5-0.1-0.8-0.1c-0.7,0-1.2,0.1-1.6,0.4c-0.4,0.3-0.6,0.8-0.7,1.4h-3.4
			C12.6,1134.5,12.8,1133.7,13.1,1133.2 M10.7,1131.2v2.8H7.9v5.9c0,0.6,0.2,1,0.4,1.2c0.2,0.2,0.6,0.3,1.2,0.3c0.2,0,0.5,0,0.6,0
			c0.2,0,0.6,0,0.6-0.1v2.6c-0.6,0.1-0.7,0.1-1,0.1c-0.4,0-0.7,0-1.1,0c-0.5,0-1,0-1.5-0.1c-0.5-0.1-0.9-0.2-1.3-0.4
			c-0.4-0.2-0.7-0.5-0.9-0.9c-0.2-0.4-0.4-0.9-0.4-1.5v-7.1H2.9v-2.8h1.7v-3.4h3.4v3.4H10.7z M-6.3,1140.6c0.2,0.3,0.3,0.5,0.6,0.7
			c0.2,0.2,0.5,0.3,0.8,0.4c0.3,0.1,0.6,0.1,1,0.1c0.2,0,0.5,0,0.8-0.1c0.3-0.1,0.5-0.1,0.7-0.3c0.2-0.1,0.4-0.3,0.5-0.5
			c0.1-0.2,0.2-0.5,0.2-0.8c0-0.5-0.3-0.9-1-1.2c-0.7-0.3-1.6-0.5-2.8-0.8c-0.5-0.1-1-0.3-1.5-0.4c-0.5-0.1-0.9-0.3-1.3-0.6
			c-0.4-0.3-0.7-0.6-0.9-0.9c-0.2-0.4-0.3-0.8-0.3-1.4c0-0.8,0.2-1.5,0.5-2c0.3-0.5,0.7-0.9,1.2-1.2c0.5-0.3,1.1-0.5,1.7-0.6
			c0.6-0.1,1.3-0.2,2-0.2c0.7,0,1.3,0.1,2,0.2c0.6,0.1,1.2,0.3,1.7,0.6c0.5,0.3,0.9,0.7,1.2,1.2c0.3,0.5,0.5,1.4,0.6,1.9h-3.2
			c-0.1-0.6-0.3-1.1-0.7-1.3c-0.4-0.2-1-0.4-1.6-0.4c-0.2,0-0.4,0-0.6,0c-0.2,0-0.4,0.1-0.6,0.1c-0.2,0.1-0.3,0.2-0.5,0.3
			c-0.1,0.2-0.2,0.4-0.2,0.6c0,0.3,0.1,0.5,0.3,0.7c0.2,0.2,0.5,0.4,0.9,0.5c0.4,0.1,0.8,0.2,1.2,0.3c0.5,0.1,0.9,0.2,1.4,0.3
			c0.5,0.1,1,0.2,1.4,0.4c0.5,0.2,0.9,0.4,1.3,0.6c0.4,0.3,0.7,0.6,0.9,1c0.2,0.4,0.3,0.9,0.3,1.5c0,0.8-0.2,1.5-0.5,2
			c-0.3,0.5-0.8,1-1.3,1.3c-0.5,0.3-1.1,0.6-1.8,0.7c-0.7,0.1-1.4,0.2-2.1,0.2c-0.7,0-1.4-0.1-2.1-0.2c-0.7-0.1-1.3-0.4-1.8-0.7
			c-0.5-0.3-1-0.9-1.3-1.4c-0.3-0.6-0.5-1.1-0.6-2.2h3.2C-6.5,1140.1-6.4,1140.4-6.3,1140.6 M-23.2,1134.9c0.3-0.8,0.7-1.5,1.3-2.1
			c0.6-0.6,1.2-1,2-1.3c0.8-0.3,1.7-0.5,2.6-0.5c1,0,1.9,0.2,2.7,0.5c0.8,0.3,1.5,0.8,2,1.3c0.6,0.6,1,1.3,1.3,2.1
			c0.3,0.8,0.5,1.7,0.5,2.7c0,1-0.1,1.9-0.5,2.7c-0.3,0.8-0.7,1.5-1.3,2.1c-0.6,0.6-1.2,1-2,1.3c-0.8,0.3-1.7,0.5-2.7,0.5
			c-1,0-1.9-0.2-2.6-0.5c-0.8-0.3-1.5-0.7-2-1.3c-0.6-0.6-1-1.3-1.3-2.1c-0.3-0.8-0.5-1.7-0.5-2.7
			C-23.7,1136.6-23.5,1135.7-23.2,1134.9 M-20.1,1139.1c0.1,0.5,0.3,0.9,0.5,1.3c0.2,0.4,0.5,0.7,0.9,0.9c0.4,0.2,0.9,0.3,1.4,0.3
			c0.6,0,1.1-0.1,1.4-0.3c0.4-0.2,0.7-0.5,0.9-0.9c0.2-0.4,0.4-0.8,0.5-1.3c0.1-0.5,0.1-1,0.1-1.5c0-0.5,0-1-0.1-1.5
			c-0.1-0.5-0.3-0.9-0.5-1.3c-0.2-0.4-0.5-0.7-0.9-0.9c-0.4-0.2-0.9-0.3-1.4-0.3c-0.6,0-1.1,0.1-1.4,0.3c-0.4,0.2-0.7,0.5-0.9,0.9
			c-0.2,0.4-0.4,0.8-0.5,1.3c-0.1,0.5-0.1,1-0.1,1.5C-20.3,1138.1-20.2,1138.6-20.1,1139.1 M-28.4,1131.2v2.8h-0.1
			c0.2-0.6,0.4-0.9,0.6-1.2c0.3-0.3,0.6-0.7,0.9-0.9c0.4-0.2,0.7-0.4,1.1-0.6c0.4-0.1,0.8-0.2,1.2-0.2c0.2,0,0.7,0,0.7,0.1v3.2
			c0,0-0.3-0.1-0.5-0.1c-0.2,0-0.4,0-0.6,0c-0.6,0-1.1,0.1-1.6,0.3c-0.4,0.2-0.8,0.5-1,0.8c-0.3,0.4-0.5,0.8-0.6,1.3
			c-0.1,0.5-0.2,1-0.2,1.6v5.8h-3.4v-12.8H-28.4z M-37.9,1144v-1.7h0c-0.4,0.6-1,1.1-1.7,1.4c-0.7,0.3-1.4,0.4-2.1,0.4
			c-0.9,0-1.7-0.1-2.2-0.4c-0.6-0.2-1-0.6-1.4-1c-0.3-0.4-0.6-1-0.7-1.6c-0.1-0.6-0.2-1.3-0.2-2.1v-7.9h3.4v7.3c0,1,0.2,1.8,0.5,2.3
			c0.3,0.5,0.9,0.8,1.7,0.8c0.9,0,1.7-0.3,2.1-0.8c0.4-0.6,0.7-1.5,0.7-2.7v-6.8h3.4v12.8H-37.9z M-56.4,1140.8
			c0.5,0.5,1.2,0.8,2.2,0.8c0.7,0,1.3-0.1,1.8-0.5c0.5-0.3,0.8-0.5,0.9-1h3c-0.5,1.1-1.2,2.5-2.2,3.1c-1,0.6-2.2,0.9-3.6,0.9
			c-1,0-1.9-0.2-2.6-0.5c-0.8-0.3-1.4-0.8-2-1.3c-0.5-0.6-1-1.3-1.3-2.1c-0.3-0.8-0.4-1.7-0.4-2.6c0-0.9,0.1-1.8,0.5-2.6
			c0.3-0.8,0.7-1.5,1.3-2.1c0.6-0.6,1.2-1,2-1.4c0.8-0.3,1.6-0.5,2.6-0.5c1.1,0,2,0.2,2.8,0.6c0.8,0.4,1.4,1,1.9,1.6
			c0.5,0.7,0.9,1.5,1.1,2.3c0.2,0.9,0.3,1.6,0.2,2.7h-8.9C-57.2,1139.6-56.9,1140.4-56.4,1140.8 M-52.5,1134.3
			c-0.4-0.4-1-0.7-1.9-0.7c-0.5,0-1,0.1-1.4,0.3c-0.4,0.2-0.6,0.4-0.9,0.7c-0.2,0.3-0.4,0.5-0.5,0.8c-0.1,0.3-0.1,0.8-0.2,0.8h5.5
			C-51.8,1135.6-52.1,1134.7-52.5,1134.3"/>
	</g>
	<g id="EUflag_16_">
		<g>
			<polygon fill="#2F54A7" points="61.3,1144.1 61.3,1127.7 36.8,1127.7 36.8,1144.1 61.3,1144.1 			"/>
			<path fill="#FFFFFF" d="M60.5,1128.5v14.8H37.6v-14.8H60.5 M61.3,1127.7H36.8v16.4h24.6V1127.7L61.3,1127.7z"/>
		</g>
	</g>
	<g>
		<polygon fill="#FFF400" points="49.5,1130.5 50.3,1130.5 49.6,1131 49.9,1131.7 49.2,1131.3 48.6,1131.7 48.9,1131 48.2,1130.5 
			49,1130.5 49.2,1129.7 49.5,1130.5 		"/>
		<polygon fill="#FFF400" points="49.5,1140.9 50.3,1140.9 49.7,1141.4 49.9,1142.1 49.3,1141.6 48.6,1142.1 48.9,1141.4 
			48.3,1140.9 49,1140.9 49.3,1140.2 49.5,1140.9 		"/>
		<polygon fill="#FFF400" points="52.1,1140.2 52.9,1140.2 52.2,1140.7 52.5,1141.4 51.8,1141 51.2,1141.4 51.5,1140.7 50.8,1140.2 
			51.6,1140.2 51.8,1139.5 52.1,1140.2 		"/>
		<polygon fill="#FFF400" points="52.1,1131.2 52.9,1131.2 52.2,1131.6 52.5,1132.4 51.8,1131.9 51.2,1132.4 51.5,1131.6 
			50.8,1131.2 51.6,1131.2 51.8,1130.4 52.1,1131.2 		"/>
		<polygon fill="#FFF400" points="54,1133.1 54.8,1133.1 54.1,1133.6 54.4,1134.3 53.8,1133.8 53.1,1134.3 53.4,1133.6 52.7,1133.1 
			53.5,1133.1 53.8,1132.3 54,1133.1 		"/>
		<polygon fill="#FFF400" points="54,1138.3 54.8,1138.3 54.1,1138.8 54.4,1139.5 53.8,1139.1 53.1,1139.5 53.4,1138.8 52.7,1138.3 
			53.5,1138.3 53.8,1137.6 54,1138.3 		"/>
		<polygon fill="#FFF400" points="54.7,1135.7 55.5,1135.7 54.9,1136.1 55.1,1136.9 54.5,1136.4 53.8,1136.9 54.1,1136.1 
			53.5,1135.7 54.2,1135.7 54.5,1134.9 54.7,1135.7 		"/>
		<polygon fill="#FFF400" points="46.8,1131.2 47.6,1131.2 47,1131.6 47.2,1132.4 46.6,1131.9 46,1132.4 46.2,1131.6 45.6,1131.2 
			46.4,1131.2 46.6,1130.4 46.8,1131.2 		"/>
		<polygon fill="#FFF400" points="45,1133.1 45.8,1133.1 45.1,1133.6 45.4,1134.3 44.8,1133.8 44.1,1134.3 44.4,1133.6 43.7,1133.1 
			44.5,1133.1 44.8,1132.4 45,1133.1 		"/>
		<polygon fill="#FFF400" points="44.3,1135.7 45.1,1135.7 44.4,1136.1 44.7,1136.9 44.1,1136.4 43.4,1136.9 43.7,1136.1 43,1135.7 
			43.8,1135.7 44.1,1134.9 44.3,1135.7 		"/>
		<polygon fill="#FFF400" points="45,1138.3 45.8,1138.3 45.1,1138.8 45.4,1139.5 44.8,1139.1 44.1,1139.5 44.4,1138.8 43.7,1138.3 
			44.5,1138.3 44.8,1137.6 45,1138.3 		"/>
		<polygon fill="#FFF400" points="46.9,1140.2 47.7,1140.2 47,1140.7 47.3,1141.4 46.6,1141 46,1141.4 46.3,1140.7 45.6,1140.2 
			46.4,1140.2 46.6,1139.5 46.9,1140.2 		"/>
	</g>
</g>
</svg>
