<?xml version="1.0" encoding="UTF-8" standalone="no"?>
<!-- Generator: Adobe Illustrator 18.0.0, SVG Export Plug-In . SVG Version: 6.00 Build 0)  -->

<svg
   xmlns:ns="&amp;ns_sfw;"
   xmlns:dc="http://purl.org/dc/elements/1.1/"
   xmlns:cc="http://creativecommons.org/ns#"
   xmlns:rdf="http://www.w3.org/1999/02/22-rdf-syntax-ns#"
   xmlns:svg="http://www.w3.org/2000/svg"
   xmlns="http://www.w3.org/2000/svg"
   xmlns:sodipodi="http://sodipodi.sourceforge.net/DTD/sodipodi-0.dtd"
   xmlns:inkscape="http://www.inkscape.org/namespaces/inkscape"
   version="1.0"
   id="Calque_1"
   x="0px"
   y="0px"
   viewBox="0 0 44.1 44.7"
   enable-background="new 0 0 44.1 44.7"
   xml:space="preserve"
   inkscape:version="0.91 r13725"
   sodipodi:docname="pdf.svg"><defs
     id="defs21" /><sodipodi:namedview
     pagecolor="#ffffff"
     bordercolor="#666666"
     borderopacity="1"
     objecttolerance="10"
     gridtolerance="10"
     guidetolerance="10"
     inkscape:pageopacity="0"
     inkscape:pageshadow="2"
     inkscape:window-width="1117"
     inkscape:window-height="656"
     id="namedview19"
     showgrid="false"
     inkscape:zoom="5.279642"
     inkscape:cx="22.780107"
     inkscape:cy="22.35"
     inkscape:window-x="418"
     inkscape:window-y="181"
     inkscape:window-maximized="0"
     inkscape:current-layer="Calque_1" /><metadata
     id="metadata3"><ns:sfw><ns:slices /><ns:sliceSourceBounds
         width="44.1"
         height="44.7"
         y="-563.2"
         x="863.3"
         bottomLeftOrigin="true" /></ns:sfw><rdf:RDF><cc:Work
         rdf:about=""><dc:format>image/svg+xml</dc:format><dc:type
           rdf:resource="http://purl.org/dc/dcmitype/StillImage" /><dc:title></dc:title></cc:Work></rdf:RDF></metadata><g
     id="g5"><path
       d="M22.1,2c-11,0-20,9.1-20,20.4c0,3.9,1.1,7.6,3,10.7l-2.2,7.5l7.6-1.7c3.3,2.4,7.3,3.8,11.6,3.8   c11,0,20-9.1,20-20.4S33.1,2,22.1,2z"
       id="path7"
       fill="#FFCC00" /><g
       id="g9"><path
         d="M22.1,2c11,0,20,9.1,20,20.4s-9,20.4-20,20.4c-4.3,0-8.3-1.4-11.6-3.8l-7.6,1.7l2.2-7.5    c-1.9-3.1-3-6.8-3-10.7C2.1,11.1,11.1,2,22.1,2 M22.1,0C10,0,0.1,10,0.1,22.4c0,3.9,1,7.6,2.9,11l-2,6.7l-1,3.3l3.3-0.7l6.8-1.5    c3.6,2.4,7.7,3.7,12,3.7c12.1,0,22-10,22-22.4S34.2,0,22.1,0L22.1,0z"
         id="path11"
         fill="#FFFFFF" /></g><g
       id="g13" /></g><g
     transform="matrix(0.05,0,0,0.05,15.077716,26.631507)"
     id="g3"><path
       inkscape:connector-curvature="0"
       d="m 324.90393,-52.851887 c -7.108,-7.003 -22.872,-10.712 -46.86,-11.027 -16.238,-0.179 -35.782,1.251 -56.339,4.129 -9.205,-5.311 -18.691,-11.091 -26.139,-18.051 -20.033,-18.707 -36.755,-44.673003 -47.175,-73.226003 0.679,-2.667 1.257,-5.011 1.795,-7.403 0,0 11.284,-64.093 8.297,-85.763 -0.411,-2.972 -0.664,-3.834 -1.463,-6.144 l -0.98,-2.518 c -3.069,-7.079 -9.087,-14.58 -18.522,-14.171 l -5.533,-0.176 -0.152,-0.003 c -10.521,0 -19.096,5.381 -21.347,13.424 -6.842,25.226 0.218,62.964 13.012,111.842 l -3.275,7.961 c -9.161,22.332 -20.641,44.823003 -30.77,64.665003 l -1.317,2.581 c -10.656,20.854 -20.325,38.557 -29.09,53.554 l -9.05,4.7849995 c -0.659,0.348 -16.169,8.551 -19.807,10.752 -30.86199974,18.4270005 -51.313,39.3460005 -54.706,55.9460005 -1.08,5.297 -0.276,12.075 5.215,15.214 l 8.753,4.405 c 3.7970003,1.902 7.8010003,2.866 11.9030003,2.866 21.9809997,0 47.4999997,-27.382 82.6539997,-88.7320005 40.588,-13.2139995 86.799,-24.1969995 127.299,-30.2549995 30.864,17.379 68.824,29.4489995 92.783,29.4489995 4.254,0 7.921,-0.406 10.901,-1.194 4.595,-1.2169995 8.468,-3.8379995 10.829,-7.3939995 4.648,-6.995 5.591,-16.631 4.329,-26.497 -0.376,-2.927 -2.715,-6.547 -5.245,-9.019 z m -328.3149997,116.962 c 4.00799996,-10.96 19.8749997,-32.627 43.3349997,-51.852 1.475,-1.196 5.108,-4.6010005 8.435,-7.7620005 C 23.82593,43.624113 7.3969303,59.219113 -3.4110697,64.110113 Z M 135.54093,-255.86989 c 7.066,0 11.085,17.81 11.419,34.507 0.333,16.698 -3.572,28.417 -8.416,37.088 -4.012,-12.838 -5.951,-33.073 -5.951,-46.304 0,0 -0.295,-25.291 2.948,-25.291 z m -41.45,228.025003 c 4.922,-8.811 10.043,-18.103 15.276,-27.957 12.756,-24.123 20.812,-42.999 26.812,-58.514003 11.933,21.710003 26.794,40.167003 44.264,54.955003 2.179,1.844 4.488,3.698 6.913,5.547 -35.526,7.029 -66.231,15.578 -93.265,25.969 z m 223.987,-2.001 c -2.164,1.353 -8.362,2.135 -12.349,2.135 -12.867,0 -28.787,-5.883 -51.105,-15.451 8.575,-0.635 16.438,-0.957 23.489,-0.957 12.906,0 16.729,-0.056 29.349,3.163 12.62,3.219 12.779,9.757 10.616,11.11 z m 38.816,-226.157003 -74.408,-74.407 c -16.205,-16.205 -48.213,-29.463 -71.13,-29.463 l -250,0 c -22.917,0 -41.667,18.75 -41.667,41.667 l 0,450 c 0,22.916 18.75,41.666 41.667,41.666 l 383.333,0 c 22.916,0 41.666,-18.75 41.666,-41.666 l 0,-316.667 c 10e-4,-22.917 -13.257,-54.926 -29.461,-71.13 z m -23.57,23.57 c 1.631,1.631 3.255,3.633 4.833,5.893 l -85.134,0 0,-85.133 c 2.261,1.578 4.263,3.203 5.893,4.833 l 74.408,74.407 z m 19.699,364.227 c 0,4.517 -3.816,8.333 -8.333,8.333 l -383.334,0 c -4.517,0 -8.333,-3.816 -8.333,-8.333 l 0,-450 c 0,-4.517 3.817,-8.333 8.333,-8.333 l 250,0 c 2.517,0 5.341,0.318 8.334,0.887 l 0,132.446 132.446,0 c 0.569,2.993 0.887,5.816 0.887,8.333 l 0,316.667 z"
       id="path5"
       style="fill:#ffffff" /></g></svg>