<?xml version="1.0" encoding="UTF-8" standalone="no"?>
<!-- Generator: Adobe Illustrator 18.0.0, SVG Export Plug-In . SVG Version: 6.00 Build 0)  -->

<svg
   xmlns:ns="&amp;ns_sfw;"
   xmlns:dc="http://purl.org/dc/elements/1.1/"
   xmlns:cc="http://creativecommons.org/ns#"
   xmlns:rdf="http://www.w3.org/1999/02/22-rdf-syntax-ns#"
   xmlns:svg="http://www.w3.org/2000/svg"
   xmlns="http://www.w3.org/2000/svg"
   xmlns:sodipodi="http://sodipodi.sourceforge.net/DTD/sodipodi-0.dtd"
   xmlns:inkscape="http://www.inkscape.org/namespaces/inkscape"
   version="1.0"
   id="Calque_1"
   x="0px"
   y="0px"
   viewBox="0 0 44.1 44.7"
   enable-background="new 0 0 44.1 44.7"
   xml:space="preserve"
   inkscape:version="0.91 r13725"
   sodipodi:docname="action_bgd.svg"><defs
     id="defs21" /><sodipodi:namedview
     pagecolor="#ffffff"
     bordercolor="#666666"
     borderopacity="1"
     objecttolerance="10"
     gridtolerance="10"
     guidetolerance="10"
     inkscape:pageopacity="0"
     inkscape:pageshadow="2"
     inkscape:window-width="1920"
     inkscape:window-height="1005"
     id="namedview19"
     showgrid="false"
     inkscape:zoom="5.279642"
     inkscape:cx="22.049999"
     inkscape:cy="22.35"
     inkscape:window-x="-9"
     inkscape:window-y="-9"
     inkscape:window-maximized="1"
     inkscape:current-layer="Calque_1" /><metadata
     id="metadata3"><ns:sfw><ns:slices /><ns:sliceSourceBounds
         width="44.1"
         height="44.7"
         y="-563.2"
         x="863.3"
         bottomLeftOrigin="true" /></ns:sfw><rdf:RDF><cc:Work
         rdf:about=""><dc:format>image/svg+xml</dc:format><dc:type
           rdf:resource="http://purl.org/dc/dcmitype/StillImage" /><dc:title></dc:title></cc:Work></rdf:RDF></metadata><g
     id="g5"><path
       fill="#FFCC00"
       d="M22.1,2c-11,0-20,9.1-20,20.4c0,3.9,1.1,7.6,3,10.7l-2.2,7.5l7.6-1.7c3.3,2.4,7.3,3.8,11.6,3.8   c11,0,20-9.1,20-20.4S33.1,2,22.1,2z"
       id="path7" /><g
       id="g9"><path
         fill="#FFFFFF"
         d="M22.1,2c11,0,20,9.1,20,20.4s-9,20.4-20,20.4c-4.3,0-8.3-1.4-11.6-3.8l-7.6,1.7l2.2-7.5    c-1.9-3.1-3-6.8-3-10.7C2.1,11.1,11.1,2,22.1,2 M22.1,0C10,0,0.1,10,0.1,22.4c0,3.9,1,7.6,2.9,11l-2,6.7l-1,3.3l3.3-0.7l6.8-1.5    c3.6,2.4,7.7,3.7,12,3.7c12.1,0,22-10,22-22.4S34.2,0,22.1,0L22.1,0z"
         id="path11" /></g><g
       id="g13" /></g></svg>