<?xml version="1.0" encoding="utf-8"?>
<!-- Generator: Adobe Illustrator 18.0.0, SVG Export Plug-In . SVG Version: 6.00 Build 0)  -->
<!DOCTYPE svg PUBLIC "-//W3C//DTD SVG 1.0//EN" "http://www.w3.org/TR/2001/REC-SVG-20010904/DTD/svg10.dtd" [
	<!ENTITY ns_extend "http://ns.adobe.com/Extensibility/1.0/">
	<!ENTITY ns_ai "http://ns.adobe.com/AdobeIllustrator/10.0/">
	<!ENTITY ns_graphs "http://ns.adobe.com/Graphs/1.0/">
	<!ENTITY ns_vars "http://ns.adobe.com/Variables/1.0/">
	<!ENTITY ns_imrep "http://ns.adobe.com/ImageReplacement/1.0/">
	<!ENTITY ns_sfw "http://ns.adobe.com/SaveForWeb/1.0/">
	<!ENTITY ns_custom "http://ns.adobe.com/GenericCustomNamespace/1.0/">
	<!ENTITY ns_adobe_xpath "http://ns.adobe.com/XPath/1.0/">
]>
<svg version="1.0" id="Calque_1" xmlns:x="&ns_extend;" xmlns:i="&ns_ai;" xmlns:graph="&ns_graphs;"
	 xmlns="http://www.w3.org/2000/svg" xmlns:xlink="http://www.w3.org/1999/xlink" x="0px" y="0px" viewBox="0 0 44.1 44.7"
	 enable-background="new 0 0 44.1 44.7" xml:space="preserve">
<metadata>
	<sfw  xmlns="&ns_sfw;">
		<slices></slices>
		<sliceSourceBounds  width="44.1" height="44.7" y="-563.2" x="863.3" bottomLeftOrigin="true"></sliceSourceBounds>
	</sfw>
</metadata>
<g>
	<path fill="#FFCC00" d="M22.1,2c-11,0-20,9.1-20,20.4c0,3.9,1.1,7.6,3,10.7l-2.2,7.5l7.6-1.7c3.3,2.4,7.3,3.8,11.6,3.8
		c11,0,20-9.1,20-20.4S33.1,2,22.1,2z"/>
	<g>
		<path fill="#FFFFFF" d="M22.1,2c11,0,20,9.1,20,20.4s-9,20.4-20,20.4c-4.3,0-8.3-1.4-11.6-3.8l-7.6,1.7l2.2-7.5
			c-1.9-3.1-3-6.8-3-10.7C2.1,11.1,11.1,2,22.1,2 M22.1,0C10,0,0.1,10,0.1,22.4c0,3.9,1,7.6,2.9,11l-2,6.7l-1,3.3l3.3-0.7l6.8-1.5
			c3.6,2.4,7.7,3.7,12,3.7c12.1,0,22-10,22-22.4S34.2,0,22.1,0L22.1,0z"/>
	</g>
	<g>
		<circle fill="#FFFFFF" cx="22" cy="13.8" r="3.2"/>
		<polygon fill="#FFFFFF" points="24.7,29.7 24.7,22.3 24.7,21.4 24.7,18.3 17.5,18.3 17.5,22.3 19.1,22.3 19.1,29.7 17.5,29.7 
			17.5,33.7 26.2,33.7 26.2,29.7 		"/>
	</g>
</g>
</svg>
