<?xml version="1.0" encoding="UTF-8" standalone="no"?>
<!-- Generator: Adobe Illustrator 18.0.0, SVG Export Plug-In . SVG Version: 6.00 Build 0)  -->

<svg
   xmlns:ns="&amp;#38;ns_sfw;"
   xmlns:dc="http://purl.org/dc/elements/1.1/"
   xmlns:cc="http://creativecommons.org/ns#"
   xmlns:rdf="http://www.w3.org/1999/02/22-rdf-syntax-ns#"
   xmlns:svg="http://www.w3.org/2000/svg"
   xmlns="http://www.w3.org/2000/svg"
   xmlns:sodipodi="http://sodipodi.sourceforge.net/DTD/sodipodi-0.dtd"
   xmlns:inkscape="http://www.inkscape.org/namespaces/inkscape"
   version="1.0"
   id="Calque_1"
   x="0px"
   y="0px"
   viewBox="0 0 44.1 44.7"
   enable-background="new 0 0 44.1 44.7"
   xml:space="preserve"
   inkscape:version="0.91 r13725"
   sodipodi:docname="settings.svg"><defs
     id="defs21" /><sodipodi:namedview
     pagecolor="#ffffff"
     bordercolor="#666666"
     borderopacity="1"
     objecttolerance="10"
     gridtolerance="10"
     guidetolerance="10"
     inkscape:pageopacity="0"
     inkscape:pageshadow="2"
     inkscape:window-width="1117"
     inkscape:window-height="656"
     id="namedview19"
     showgrid="false"
     inkscape:zoom="5.279642"
     inkscape:cx="-3.1809487"
     inkscape:cy="45.078814"
     inkscape:window-x="418"
     inkscape:window-y="181"
     inkscape:window-maximized="0"
     inkscape:current-layer="Calque_1" /><metadata
     id="metadata3"><ns:sfw><ns:slices /><ns:sliceSourceBounds
         width="44.1"
         height="44.7"
         y="-563.2"
         x="863.3"
         bottomLeftOrigin="true" /></ns:sfw><rdf:RDF><cc:Work
         rdf:about=""><dc:format>image/svg+xml</dc:format><dc:type
           rdf:resource="http://purl.org/dc/dcmitype/StillImage" /><dc:title></dc:title></cc:Work></rdf:RDF></metadata><g
     id="g5"><path
       d="M22.1,2c-11,0-20,9.1-20,20.4c0,3.9,1.1,7.6,3,10.7l-2.2,7.5l7.6-1.7c3.3,2.4,7.3,3.8,11.6,3.8   c11,0,20-9.1,20-20.4S33.1,2,22.1,2z"
       id="path7"
       fill="#FFCC00" /><g
       id="g9"><path
         d="M22.1,2c11,0,20,9.1,20,20.4s-9,20.4-20,20.4c-4.3,0-8.3-1.4-11.6-3.8l-7.6,1.7l2.2-7.5    c-1.9-3.1-3-6.8-3-10.7C2.1,11.1,11.1,2,22.1,2 M22.1,0C10,0,0.1,10,0.1,22.4c0,3.9,1,7.6,2.9,11l-2,6.7l-1,3.3l3.3-0.7l6.8-1.5    c3.6,2.4,7.7,3.7,12,3.7c12.1,0,22-10,22-22.4S34.2,0,22.1,0L22.1,0z"
         id="path11"
         fill="#FFFFFF" /></g><g
       id="g13" /></g><path
     inkscape:connector-curvature="0"
     d="m 32.17213,23.755658 c 0,-0.401625 0.133875,-0.80325 0.133875,-1.33875 0,-0.535499 0,-0.937124 -0.133875,-1.33875 l 2.811375,-2.275875 c 0.26775,-0.26775 0.26775,-0.5355 0.133875,-0.80325 l -2.6775,-4.685625 c -0.133875,-0.133875 -0.401573,-0.26775 -0.80325,-0.133875 l -3.346875,1.33875 C 27.62038,13.982783 26.81713,13.581158 26.01388,13.179533 L 25.47838,9.6987832 C 25.612255,9.2971586 25.210577,9.0294086 24.94288,9.0294086 l -5.355,0 c -0.267803,0 -0.669375,0.26775 -0.669375,0.5354996 l -0.5355,3.6146248 c -0.80325,0.26775 -1.472625,0.80325 -2.275875,1.33875 l -3.213,-1.33875 c -0.401625,-0.133875 -0.669375,0 -0.937178,0.26775 l -2.6775001,4.685625 c -0.133875,0.133875 0,0.5355 0.2677502,0.80325 l 2.8113749,2.142 c 0,0.401626 -0.133875,0.803251 -0.133875,1.33875 0,0.5355 0,0.937125 0.133875,1.33875 l -2.8113749,2.275875 c -0.2677502,0.267803 -0.2677502,0.5355 -0.133875,0.803303 l 2.6774999,4.685625 c 0.133875,0.133875 0.401573,0.26775 0.80325,0.133875 l 3.346875,-1.33875 c 0.669375,0.5355 1.472625,0.937125 2.275875,1.33875 l 0.5355,3.48075 c 0,0.26775 0.26775,0.5355 0.669375,0.5355 l 5.355,0 c 0.267803,0 0.669375,-0.267803 0.669375,-0.5355 l 0.5355,-3.48075 c 0.80325,-0.401625 1.6065,-0.80325 2.275875,-1.33875 l 3.346875,1.33875 c 0.267803,0.133875 0.669375,0 0.803303,-0.267803 l 2.6775,-4.685625 c 0.133875,-0.26775 0.133875,-0.669375 -0.133928,-0.80325 l -3.079072,-2.142 z m -9.90675,3.346875 c -2.543625,0 -4.685625,-2.142 -4.685625,-4.685625 0,-2.543625 2.142,-4.685625 4.685625,-4.685625 2.543625,0 4.685625,2.142 4.685625,4.685625 0,2.543625 -2.142,4.685625 -4.685625,4.685625 z"
     id="path6"
     style="fill:#ffffff" /></svg>